<svg width="26" height="30" viewBox="0 0 26 30" fill="none" xmlns="http://www.w3.org/2000/svg">
<path fill-rule="evenodd" clip-rule="evenodd" d="M21.0341 8.09401V10.394C23.6176 11.2004 25.5 13.5392 25.5 16.3326V23.7379C25.5 27.1962 22.633 30 19.0983 30H6.4032C2.86703 30 0 27.1962 0 23.7379V16.3326C0 13.5392 1.88392 11.2004 4.46593 10.394V8.09401C4.48117 3.62218 8.185 0 12.7271 0C17.3302 0 21.0341 3.62218 21.0341 8.09401ZM12.7576 2.60857C15.8518 2.60857 18.3667 5.06807 18.3667 8.09401V10.0706H7.13329V8.0642C7.14854 5.05317 9.66348 2.60857 12.7576 2.60857ZM14.0837 21.6824C14.0837 22.4128 13.4892 22.9941 12.7424 22.9941C12.0108 22.9941 11.4163 22.4128 11.4163 21.6824V18.3732C11.4163 17.6578 12.0108 17.0764 12.7424 17.0764C13.4892 17.0764 14.0837 17.6578 14.0837 18.3732V21.6824Z" fill="white"/>
</svg>
