<svg width="31" height="21" viewBox="0 0 31 21" fill="none" xmlns="http://www.w3.org/2000/svg">
<path d="M28.5 3.225C28.0443 3.0198 27.5383 2.95305 27.0449 3.03306C26.5515 3.11306 26.0925 3.33629 25.725 3.675L22.5 6.675V4.5C22.5 3.30653 22.0259 2.16193 21.182 1.31802C20.3381 0.474106 19.1935 0 18 0H4.5C3.30653 0 2.16193 0.474106 1.31802 1.31802C0.474106 2.16193 0 3.30653 0 4.5V16.5C0 17.6935 0.474106 18.8381 1.31802 19.682C2.16193 20.5259 3.30653 21 4.5 21H18C19.1935 21 20.3381 20.5259 21.182 19.682C22.0259 18.8381 22.5 17.6935 22.5 16.5V14.325L25.74 17.325C26.217 17.7568 26.8366 17.9972 27.48 18C27.837 17.9992 28.1898 17.9225 28.515 17.775C28.9574 17.596 29.3364 17.2892 29.6036 16.8938C29.8708 16.4984 30.014 16.0322 30.015 15.555V5.445C30.0128 4.96603 29.8674 4.49867 29.5974 4.10304C29.3274 3.70741 28.9452 3.40162 28.5 3.225Z" fill="white"/>
</svg>
