<svg width="23" height="24" viewBox="0 0 23 24" fill="none" xmlns="http://www.w3.org/2000/svg">
<path fill-rule="evenodd" clip-rule="evenodd" d="M8.70751 22.8435C4.41677 22.8435 0.75118 22.195 0.75118 19.5963C0.75118 16.9975 4.3934 14.6558 8.70751 14.6558C12.9983 14.6558 16.6627 16.9753 16.6627 19.5729C16.6627 22.1705 13.0216 22.8435 8.70751 22.8435Z" stroke="#212121" stroke-width="1.5" stroke-linecap="round" stroke-linejoin="round"/>
<path fill-rule="evenodd" clip-rule="evenodd" d="M8.70759 10.9499C11.5237 10.9499 13.8069 8.66661 13.8069 5.85052C13.8069 3.03443 11.5237 0.75118 8.70759 0.75118C5.8915 0.75118 3.60824 3.03443 3.60824 5.85052C3.59773 8.65727 5.86579 10.9405 8.67136 10.9499H8.70759Z" stroke="#212121" stroke-width="1.5" stroke-linecap="round" stroke-linejoin="round"/>
<path d="M17.1709 9.54946C18.8103 9.11127 20.0186 7.61676 20.0186 5.83829C20.0197 3.98271 18.7028 2.43328 16.9524 2.07455" stroke="#212121" stroke-width="1.5" stroke-linecap="round" stroke-linejoin="round"/>
<path d="M17.9413 13.7266C20.2643 13.7266 22.2484 15.3018 22.2484 16.7075C22.2484 17.536 21.5648 18.3866 20.5248 18.6308" stroke="#212121" stroke-width="1.5" stroke-linecap="round" stroke-linejoin="round"/>
</svg>
