<svg width="27" height="22" viewBox="0 0 27 22" fill="none" xmlns="http://www.w3.org/2000/svg">
<path fill-rule="evenodd" clip-rule="evenodd" d="M25.5052 12.8458H0.87949C0.394011 12.8458 0 12.4518 0 11.9664C0 11.4809 0.394011 11.0869 0.87949 11.0869H25.5052C25.9907 11.0869 26.3847 11.4809 26.3847 11.9664C26.3847 12.4518 25.9907 12.8458 25.5052 12.8458Z" fill="#212121"/>
<path fill-rule="evenodd" clip-rule="evenodd" d="M23.3126 7.90954C22.8271 7.90954 22.4331 7.51553 22.4331 7.03005V5.25466C22.4331 3.32799 20.8641 1.75898 18.9351 1.75898H17.5221C17.0366 1.75898 16.6426 1.36497 16.6426 0.87949C16.6426 0.394011 17.0366 0 17.5221 0H18.9351C21.8339 0 24.1921 2.3582 24.1921 5.25466V7.03005C24.1921 7.51553 23.7981 7.90954 23.3126 7.90954Z" fill="#212121"/>
<path fill-rule="evenodd" clip-rule="evenodd" d="M3.07232 7.90954C2.58685 7.90954 2.19283 7.51553 2.19283 7.03005V5.25466C2.19283 2.3582 4.55104 0 7.44984 0H8.89924C9.38471 0 9.77873 0.394011 9.77873 0.87949C9.77873 1.36497 9.38471 1.75898 8.89924 1.75898H7.44984C5.52082 1.75898 3.95181 3.32799 3.95181 5.25466V7.03005C3.95181 7.51553 3.5578 7.90954 3.07232 7.90954Z" fill="#212121"/>
<path fill-rule="evenodd" clip-rule="evenodd" d="M18.9351 21.9998H17.5221C17.0366 21.9998 16.6426 21.6058 16.6426 21.1203C16.6426 20.6348 17.0366 20.2408 17.5221 20.2408H18.9351C20.8641 20.2408 22.4331 18.6718 22.4331 16.7439V11.9654C22.4331 11.4799 22.8271 11.0859 23.3126 11.0859C23.7981 11.0859 24.1921 11.4799 24.1921 11.9654V16.7439C24.1921 19.6416 21.8339 21.9998 18.9351 21.9998Z" fill="#212121"/>
<path fill-rule="evenodd" clip-rule="evenodd" d="M8.89924 21.9998H7.44984C4.55104 21.9998 2.19283 19.6416 2.19283 16.7439V11.9654C2.19283 11.4799 2.58685 11.0859 3.07232 11.0859C3.5578 11.0859 3.95181 11.4799 3.95181 11.9654V16.7439C3.95181 18.6718 5.52082 20.2408 7.44984 20.2408H8.89924C9.38471 20.2408 9.77873 20.6348 9.77873 21.1203C9.77873 21.6058 9.38471 21.9998 8.89924 21.9998Z" fill="#212121"/>
</svg>
