<svg width="25" height="33" viewBox="0 0 25 33" fill="none" xmlns="http://www.w3.org/2000/svg">
<path d="M10.6673 33.0001C10.4933 32.9999 10.3208 32.9695 10.1573 32.9101C9.84188 32.7947 9.57438 32.5767 9.3976 32.2911C9.22082 32.0056 9.14499 31.6689 9.18226 31.3351L10.3373 20.7001H1.50226C1.22976 20.7006 0.96229 20.6267 0.728584 20.4866C0.494878 20.3464 0.303763 20.1453 0.175766 19.9047C0.0477692 19.6641 -0.0122742 19.3932 0.00208399 19.1211C0.0164422 18.849 0.10466 18.5859 0.257263 18.3601L12.0923 0.660146C12.2794 0.383153 12.5538 0.176628 12.8717 0.0733594C13.1897 -0.0299087 13.533 -0.0240008 13.8473 0.0901456C14.1493 0.20229 14.4073 0.408722 14.5829 0.678881C14.7585 0.949039 14.8424 1.26856 14.8223 1.59015L13.6673 12.3001H22.5023C22.7748 12.2997 23.0422 12.3736 23.2759 12.5137C23.5096 12.6539 23.7008 12.855 23.8288 13.0956C23.9568 13.3362 24.0168 13.6071 24.0024 13.8792C23.9881 14.1513 23.8999 14.4144 23.7473 14.6401L11.9123 32.3401C11.7747 32.5437 11.5892 32.7104 11.3721 32.8254C11.155 32.9405 10.913 33.0005 10.6673 33.0001Z" fill="white"/>
</svg>
