<svg width="16" height="18" viewBox="0 0 16 18" fill="none" xmlns="http://www.w3.org/2000/svg">
<path d="M3.36849 13.9563C5.22621 13.9563 6.73698 12.4455 6.73698 10.5878V2.04445L14.3161 4.79987V11.0568C13.8065 10.7532 13.225 10.5913 12.6318 10.5878C10.7741 10.5878 9.26335 12.0985 9.26335 13.9563C9.26335 15.814 10.7741 17.3248 12.6318 17.3248C14.4896 17.3248 16.0003 15.814 16.0003 13.9563V4.21039C16.0005 4.03761 15.9473 3.86899 15.8482 3.72749C15.749 3.58599 15.6087 3.47849 15.4462 3.41963L6.18286 0.0511417C6.0557 0.00465404 5.91919 -0.0104538 5.78494 0.00710177C5.65068 0.0246573 5.52265 0.0743574 5.41171 0.15198C5.30077 0.229603 5.21021 0.332855 5.14771 0.452966C5.08522 0.573077 5.05264 0.706498 5.05274 0.841895V7.68835C4.54314 7.38473 3.96167 7.22279 3.36849 7.21929C1.51077 7.21929 0 8.73006 0 10.5878C0 12.4455 1.51077 13.9563 3.36849 13.9563Z" fill="white"/>
</svg>
