<svg width="17" height="17" viewBox="0 0 17 17" fill="none" xmlns="http://www.w3.org/2000/svg">
<path d="M15.2997 4.24992H14.2721C14.3967 3.83664 14.4567 3.40656 14.4497 2.97494C14.4497 1.33447 13.1152 0 11.4748 0C10.0961 0 9.17557 1.25968 8.58143 2.6222C7.99579 1.33447 7.02851 0 5.52489 0C3.88442 0 2.54995 1.33447 2.54995 2.97494C2.54995 3.48153 2.6171 3.90057 2.7276 4.24992H1.69997C0.762435 4.24992 0 5.01235 0 5.94988V7.64985C0 8.58738 0.762435 9.34982 1.69997 9.34982V15.2997C1.69997 16.2372 2.4624 16.9997 3.39993 16.9997H13.5997C14.5373 16.9997 15.2997 16.2372 15.2997 15.2997V9.34982C16.2372 9.34982 16.9997 8.58738 16.9997 7.64985V5.94988C16.9997 5.01235 16.2372 4.24992 15.2997 4.24992ZM11.4748 1.69997C12.1777 1.69997 12.7498 2.27201 12.7498 2.97494C12.7498 4.24992 12.2177 4.24992 11.8998 4.24992H9.79351C10.2279 2.91034 10.8585 1.69997 11.4748 1.69997ZM4.24992 2.97494C4.24992 2.27201 4.82196 1.69997 5.52489 1.69997C6.27968 1.69997 6.98176 2.99619 7.39316 4.24992H5.0999C4.78201 4.24992 4.24992 4.24992 4.24992 2.97494ZM1.69997 5.94988H7.64985V7.64985H1.69997V5.94988ZM3.39993 15.2997V9.34982H7.64985V15.2997H3.39993ZM13.5997 15.2997H9.34982V9.34982H13.5997V15.2997ZM9.34982 7.64985V6.02213L9.36427 5.94988H15.2997L15.3006 7.64985H9.34982Z" fill="#FF4D00"/>
</svg>
