<svg width="30" height="24" viewBox="0 0 30 24" fill="none" xmlns="http://www.w3.org/2000/svg">
<path d="M12.675 17.25C13.275 17.85 14.05 18.1435 15 18.1305C15.95 18.1185 16.65 17.775 17.1 17.1L23.4375 7.6125C23.6625 7.2625 23.631 6.944 23.343 6.657C23.056 6.369 22.7375 6.3375 22.3875 6.5625L12.9 12.9C12.225 13.35 11.869 14.0375 11.832 14.9625C11.794 15.8875 12.075 16.65 12.675 17.25ZM4.65 24C4.125 24 3.625 23.875 3.15 23.625C2.675 23.375 2.3 23.025 2.025 22.575C1.375 21.45 0.875 20.2565 0.525 18.9945C0.175 17.7315 0 16.4 0 15C0 12.925 0.394 10.981 1.182 9.168C1.969 7.356 3.044 5.7685 4.407 4.4055C5.769 3.0435 7.3625 1.9685 9.1875 1.1805C11.0125 0.3935 12.95 0 15 0C17.075 0 19.0185 0.3935 20.8305 1.1805C22.6435 1.9685 24.231 3.0435 25.593 4.4055C26.956 5.7685 28.031 7.356 28.818 9.168C29.606 10.981 30 12.925 30 15C30 16.4 29.8315 17.7185 29.4945 18.9555C29.1565 20.1935 28.65 21.4 27.975 22.575C27.7 23.025 27.325 23.375 26.85 23.625C26.375 23.875 25.875 24 25.35 24H4.65Z" fill="white"/>
</svg>
