<svg width="32" height="32" viewBox="0 0 32 32" fill="none" xmlns="http://www.w3.org/2000/svg">
<path d="M26.6667 0L25.0057 3.67238L21.3333 5.33333L25.0057 6.99429L26.6667 10.6667L28.3429 6.99429L32 5.33333L28.3429 3.67238L26.6667 0ZM15.2381 1.52381C6.85714 1.52381 0 8.38095 0 16.7619V32H30.4762V16.7619C30.4762 14.5219 29.9733 12.3886 29.1048 10.4686L27.2152 14.6133C27.3371 15.3143 27.4286 16 27.4286 16.7619C27.4286 23.5124 21.9886 28.9524 15.2381 28.9524C8.48762 28.9524 3.04762 23.5124 3.04762 16.7619V16.5638C5.00969 15.8288 6.7991 14.6971 8.30405 13.2393C9.809 11.7815 10.9972 10.0291 11.7943 8.09143C13.2235 9.84857 15.0264 11.265 17.0719 12.2377C19.1174 13.2103 21.3541 13.7148 23.619 13.7143C24.2969 13.7137 24.974 13.6679 25.6457 13.5771L23.3905 8.60952L16.1524 5.33333L21.5314 2.89524C19.6114 2.02667 17.4781 1.52381 15.2381 1.52381ZM10.6667 16.381C10.1615 16.381 9.67701 16.5816 9.3198 16.9388C8.96258 17.2961 8.7619 17.7805 8.7619 18.2857C8.7619 18.7909 8.96258 19.2754 9.3198 19.6326C9.67701 19.9898 10.1615 20.1905 10.6667 20.1905C10.9168 20.1905 11.1645 20.1412 11.3956 20.0455C11.6267 19.9498 11.8367 19.8095 12.0135 19.6326C12.1904 19.4557 12.3307 19.2457 12.4264 19.0146C12.5222 18.7835 12.5714 18.5359 12.5714 18.2857C12.5714 18.0356 12.5222 17.7879 12.4264 17.5568C12.3307 17.3257 12.1904 17.1157 12.0135 16.9388C11.8367 16.762 11.6267 16.6217 11.3956 16.5259C11.1645 16.4302 10.9168 16.381 10.6667 16.381ZM19.8095 16.381C19.3044 16.381 18.8199 16.5816 18.4627 16.9388C18.1054 17.2961 17.9048 17.7805 17.9048 18.2857C17.9048 18.7909 18.1054 19.2754 18.4627 19.6326C18.8199 19.9898 19.3044 20.1905 19.8095 20.1905C20.3147 20.1905 20.7992 19.9898 21.1564 19.6326C21.5136 19.2754 21.7143 18.7909 21.7143 18.2857C21.7143 17.7805 21.5136 17.2961 21.1564 16.9388C20.7992 16.5816 20.3147 16.381 19.8095 16.381Z" fill="white"/>
</svg>
