<svg width="26" height="24" viewBox="0 0 26 24" fill="none" xmlns="http://www.w3.org/2000/svg">
<path d="M11.2271 17.668L15.9307 14.9734C16.7225 14.5244 16.7225 13.378 15.9307 12.9171L11.2271 10.2226C10.4353 9.77351 9.45443 10.3526 9.45443 11.2508V16.628C9.45443 17.538 10.4353 18.117 11.2271 17.668ZM23.6361 4.49085H14.6662L18.1407 1.01635C18.377 0.77999 18.377 0.413631 18.1407 0.17727C17.9043 -0.0590902 17.538 -0.0590902 17.3016 0.17727L12.9998 4.47903L8.69807 0.17727C8.46171 -0.0590902 8.09535 -0.0590902 7.85899 0.17727C7.62263 0.413631 7.62263 0.77999 7.85899 1.01635L11.3335 4.49085H2.36361C1.73674 4.49085 1.13555 4.73987 0.692284 5.18314C0.249022 5.6264 0 6.22759 0 6.85446V21.0361C0 22.3361 1.06362 23.3997 2.36361 23.3997H23.6361C24.936 23.3997 25.9997 22.3361 25.9997 21.0361V6.85446C25.9997 6.22759 25.7506 5.6264 25.3074 5.18314C24.8641 4.73987 24.2629 4.49085 23.6361 4.49085ZM22.4543 21.0361H3.54541C2.89542 21.0361 2.36361 20.5043 2.36361 19.8543V8.03626C2.36361 7.38627 2.89542 6.85446 3.54541 6.85446H22.4543C23.1043 6.85446 23.6361 7.38627 23.6361 8.03626V19.8543C23.6361 20.5043 23.1043 21.0361 22.4543 21.0361Z" fill="white"/>
</svg>
