<svg width="10" height="10" viewBox="0 0 10 10" fill="none" xmlns="http://www.w3.org/2000/svg">
<path d="M5 0C2.243 0 0 2.243 0 5C0 7.757 2.243 10 5 10C5.733 10 6.4805 9.8145 7.221 9.448L6.7785 8.5515C6.1765 8.849 5.578 9 5 9C2.7945 9 1 7.2055 1 5C1 2.7945 2.7945 1 5 1C7.2055 1 9 2.7945 9 5V5.5C9 5.846 8.8435 6.5 8.25 6.5C7.552 6.5 7.503 5.5905 7.5 5.5V3H6.5V3.0125C6.06964 2.68197 5.54264 2.50192 5 2.5C3.6215 2.5 2.5 3.6215 2.5 5C2.5 6.3785 3.6215 7.5 5 7.5C5.725 7.5 6.374 7.1845 6.831 6.6895C7.093 7.1345 7.535 7.5 8.25 7.5C9.3865 7.5 10 6.4695 10 5.5V5C10 2.243 7.757 0 5 0ZM5 6.5C4.173 6.5 3.5 5.827 3.5 5C3.5 4.173 4.173 3.5 5 3.5C5.827 3.5 6.5 4.173 6.5 5C6.5 5.827 5.827 6.5 5 6.5Z" fill="#FF4D00"/>
</svg>
