<svg width="15" height="17" viewBox="0 0 15 17" fill="none" xmlns="http://www.w3.org/2000/svg">
<path d="M9.16 0.8C9.11389 0.574127 8.99116 0.371121 8.81258 0.225339C8.634 0.0795566 8.41053 -4.70301e-05 8.18 2.08457e-08H1C0.734784 2.08457e-08 0.48043 0.105357 0.292893 0.292893C0.105357 0.48043 0 0.734784 0 1V16C0 16.2652 0.105357 16.5196 0.292893 16.7071C0.48043 16.8946 0.734784 17 1 17C1.26522 17 1.51957 16.8946 1.70711 16.7071C1.89464 16.5196 2 16.2652 2 16V10H7.6L7.84 11.2C7.93 11.668 8.343 12.005 8.82 12H14C14.2652 12 14.5196 11.8946 14.7071 11.7071C14.8946 11.5196 15 11.2652 15 11V3C15 2.73478 14.8946 2.48043 14.7071 2.29289C14.5196 2.10536 14.2652 2 14 2H9.4L9.16 0.8Z" fill="white"/>
</svg>
