<svg width="24" height="30" viewBox="0 0 24 30" fill="none" xmlns="http://www.w3.org/2000/svg">
<path fill-rule="evenodd" clip-rule="evenodd" d="M7.34976 0H16.6045C20.6693 0 23.9542 1.60495 23.9992 5.68481V28.4541C23.9992 28.7091 23.9392 28.9641 23.8192 29.189C23.6242 29.549 23.2942 29.819 22.8893 29.939C22.4993 30.059 22.0643 29.999 21.7043 29.789L11.9846 24.9292L2.24993 29.789C2.02643 29.9075 1.76994 29.984 1.51495 29.984C0.674978 29.984 0 29.294 0 28.4541V5.68481C0 1.60495 3.29989 0 7.34976 0ZM6.32979 11.4296H17.6244C18.2694 11.4296 18.7944 10.9031 18.7944 10.2447C18.7944 9.58469 18.2694 9.0597 17.6244 9.0597H6.32979C5.68481 9.0597 5.15983 9.58469 5.15983 10.2447C5.15983 10.9031 5.68481 11.4296 6.32979 11.4296Z" fill="white"/>
</svg>
