<svg width="15" height="14" viewBox="0 0 15 14" fill="none" xmlns="http://www.w3.org/2000/svg">
<path d="M6.09284 10.9498H0.783133" stroke="#FF4D00" stroke-width="1.5" stroke-linecap="round" stroke-linejoin="round"/>
<path d="M8.46139 2.78168H13.7711" stroke="#FF4D00" stroke-width="1.5" stroke-linecap="round" stroke-linejoin="round"/>
<path fill-rule="evenodd" clip-rule="evenodd" d="M4.74136 2.73567C4.74136 1.6438 3.84963 0.758444 2.7499 0.758444C1.65017 0.758444 0.758444 1.6438 0.758444 2.73567C0.758444 3.82754 1.65017 4.71289 2.7499 4.71289C3.84963 4.71289 4.74136 3.82754 4.74136 2.73567Z" stroke="#FF4D00" stroke-width="1.5" stroke-linecap="round" stroke-linejoin="round"/>
<path fill-rule="evenodd" clip-rule="evenodd" d="M14.2417 10.9166C14.2417 9.82472 13.3506 8.93936 12.2509 8.93936C11.1505 8.93936 10.2587 9.82472 10.2587 10.9166C10.2587 12.0085 11.1505 12.8938 12.2509 12.8938C13.3506 12.8938 14.2417 12.0085 14.2417 10.9166Z" stroke="#FF4D00" stroke-width="1.5" stroke-linecap="round" stroke-linejoin="round"/>
</svg>
