<svg width="34" height="34" viewBox="0 0 34 34" fill="none" xmlns="http://www.w3.org/2000/svg">
<path fill-rule="evenodd" clip-rule="evenodd" d="M24.9312 0.0175701C27.3768 -0.135273 29.7883 0.713856 31.6055 2.37815C33.2698 4.19529 34.1189 6.60682 33.983 9.06929V24.931C34.1359 27.3935 33.2698 29.805 31.6224 31.6222C29.8053 33.2865 27.3768 34.1356 24.9312 33.9828H9.06937C6.60687 34.1356 4.19532 33.2865 2.37817 31.6222C0.713862 29.805 -0.135274 27.3935 0.0175702 24.931V9.06929C-0.135274 6.60682 0.713862 4.19529 2.37817 2.37815C4.19532 0.713856 6.60687 -0.135273 9.06937 0.0175701H24.9312ZM15.2681 25.2367L26.6974 13.7735C27.7334 12.7206 27.7334 11.0223 26.6974 9.98635L24.4897 7.77862C23.4368 6.7257 21.7385 6.7257 20.6856 7.77862L19.5477 8.93343C19.3779 9.10326 19.3779 9.39196 19.5477 9.56179C19.5477 9.56179 22.248 12.245 22.2989 12.313C22.4857 12.5168 22.6046 12.7885 22.6046 13.0942C22.6046 13.7055 22.1121 14.215 21.4837 14.215C21.195 14.215 20.9233 14.0961 20.7365 13.9093L17.9004 11.0902C17.7645 10.9544 17.5268 10.9544 17.3909 11.0902L9.29014 19.1909C8.72971 19.7513 8.40704 20.4986 8.39006 21.2968L8.28816 25.3216C8.28816 25.5424 8.35609 25.7462 8.50894 25.899C8.66178 26.0519 8.86557 26.1368 9.08635 26.1368H13.0773C13.8925 26.1368 14.6737 25.8141 15.2681 25.2367Z" fill="#FF4D00"/>
</svg>
