<svg width="19" height="19" viewBox="0 0 19 19" fill="none" xmlns="http://www.w3.org/2000/svg">
<path fill-rule="evenodd" clip-rule="evenodd" d="M16.1544 2.76148C15.2822 1.88353 14.2445 1.18738 13.1013 0.71336C11.9581 0.239344 10.7322 -0.00311513 9.49465 3.02146e-05C4.30526 3.02146e-05 0.0807564 4.22349 0.0786589 9.41497C0.0786589 11.0741 0.511807 12.6935 1.3351 14.1219L0 18.9998L4.99116 17.6899C6.37178 18.4414 7.91853 18.8355 9.49045 18.8362H9.49465C14.683 18.8362 18.9075 14.6127 18.9096 9.42126C18.9131 8.1842 18.6715 6.95871 18.1986 5.8156C17.7257 4.6725 17.0309 3.63446 16.1544 2.76148ZM9.49465 17.2473H9.4915C8.08982 17.2474 6.71393 16.8703 5.50822 16.1555L5.22295 15.9856L2.26118 16.7628L3.05091 13.8754L2.86528 13.5797C2.08161 12.3321 1.66676 10.8883 1.66862 9.41497C1.67071 5.10027 5.18099 1.58999 9.49779 1.58999C10.5259 1.5877 11.5442 1.78934 12.4938 2.18323C13.4434 2.57713 14.3055 3.15545 15.0301 3.88473C15.7586 4.61053 16.3361 5.47353 16.729 6.42383C17.122 7.37414 17.3227 8.39291 17.3196 9.42126C17.3175 13.736 13.8072 17.2473 9.49465 17.2473ZM13.7873 11.3856C13.5513 11.2671 12.3956 10.6987 12.1795 10.62C11.9645 10.5414 11.8083 10.5026 11.6509 10.7375C11.4936 10.9724 11.0427 11.502 10.9053 11.6594C10.7679 11.8167 10.6305 11.8356 10.3956 11.7181C10.1606 11.6006 9.40235 11.3521 8.50354 10.5508C7.804 9.92677 7.33205 9.15697 7.19466 8.92099C7.05727 8.68501 7.17998 8.55811 7.29849 8.44065C7.40442 8.33577 7.53342 8.16587 7.65088 8.02847C7.76835 7.89108 7.80715 7.79355 7.88581 7.63623C7.96447 7.47891 7.92566 7.34152 7.86588 7.22406C7.80715 7.10554 7.33625 5.94769 7.14012 5.47678C6.95029 5.02056 6.75627 5.08139 6.61154 5.0751C6.46164 5.06897 6.31163 5.06617 6.16161 5.06671C6.04231 5.06975 5.92494 5.0974 5.81683 5.14793C5.70873 5.19847 5.61223 5.27079 5.53339 5.36037C5.31734 5.59634 4.71009 6.16479 4.71009 7.32264C4.71009 8.4805 5.55331 9.59955 5.67078 9.75687C5.78824 9.91419 7.32995 12.2897 9.68972 13.3091C10.2519 13.5514 10.6903 13.6961 11.0311 13.8052C11.5943 13.9845 12.1072 13.9583 12.513 13.8985C12.9651 13.8314 13.9048 13.3301 14.1009 12.7805C14.297 12.231 14.297 11.7601 14.2383 11.6615C14.1796 11.5629 14.0212 11.5031 13.7873 11.3856Z" fill="#FF4D00"/>
</svg>
