<svg width="20" height="16" viewBox="0 0 20 16" fill="none" xmlns="http://www.w3.org/2000/svg">
<path d="M17.6751 3.98749C17.6881 4.16291 17.6881 4.33733 17.6881 4.51174C17.6881 9.84945 13.6254 16.0001 6.20076 16.0001C3.91331 16.0001 1.78826 15.3375 0 14.1868C0.324773 14.2239 0.637518 14.2369 0.975322 14.2369C2.79264 14.2413 4.5585 13.6336 5.98825 12.5118C5.14567 12.4965 4.32888 12.2185 3.65193 11.7166C2.97498 11.2147 2.47167 10.5139 2.21227 9.71212C2.46186 9.74921 2.71246 9.77427 2.97508 9.77427C3.33694 9.77427 3.70081 9.72415 4.03861 9.63694C3.1242 9.45231 2.30195 8.95667 1.71169 8.23429C1.12143 7.5119 0.799596 6.60738 0.800906 5.67451V5.62439C1.33919 5.9241 1.96367 6.11155 2.62525 6.13661C2.07102 5.76832 1.61657 5.26856 1.30244 4.68194C0.988312 4.09531 0.824275 3.44004 0.824964 2.77461C0.824964 2.02482 1.02444 1.33718 1.37427 0.737757C2.38882 1.98575 3.6542 3.00672 5.08845 3.73455C6.5227 4.46238 8.09383 4.88083 9.70009 4.96281C9.63794 4.6621 9.59985 4.35036 9.59985 4.03761C9.59959 3.50731 9.70384 2.98216 9.90666 2.49217C10.1095 2.00219 10.4069 1.55698 10.7819 1.182C11.1568 0.807023 11.602 0.509624 12.092 0.306809C12.582 0.103993 13.1072 -0.000263005 13.6375 4.98249e-07C14.8002 4.98249e-07 15.8497 0.48716 16.5875 1.27504C17.4914 1.10024 18.3582 0.770256 19.1496 0.299714C18.8483 1.23275 18.2171 2.02392 17.3744 2.52501C18.1761 2.43357 18.9596 2.22274 19.6989 1.89952C19.1467 2.70454 18.4625 3.41046 17.6751 3.98749Z" fill="#FF4D00"/>
</svg>
