<svg width="27" height="32" viewBox="0 0 27 32" fill="none" xmlns="http://www.w3.org/2000/svg">
<path fill-rule="evenodd" clip-rule="evenodd" d="M7.5 1.5C7.5 1.10218 7.65804 0.720644 7.93934 0.43934C8.22064 0.158035 8.60218 0 9 0H18C18.3978 0 18.7794 0.158035 19.0607 0.43934C19.342 0.720644 19.5 1.10218 19.5 1.5C19.5 1.89782 19.342 2.27936 19.0607 2.56066C18.7794 2.84196 18.3978 3 18 3H9C8.60218 3 8.22064 2.84196 7.93934 2.56066C7.65804 2.27936 7.5 1.89782 7.5 1.5ZM5.0526e-08 18C-0.000219866 15.4576 0.717462 12.9669 2.07044 10.8145C3.42342 8.66202 5.35669 6.93537 7.64774 5.83326C9.93879 4.73115 12.4945 4.29838 15.0207 4.58475C17.5468 4.87112 19.9408 5.86501 21.927 7.452L22.9395 6.4395C23.0779 6.29624 23.2434 6.18196 23.4264 6.10335C23.6094 6.02473 23.8062 5.98336 24.0054 5.98162C24.2046 5.97989 24.4021 6.01785 24.5864 6.09327C24.7708 6.16869 24.9383 6.28007 25.0791 6.42091C25.2199 6.56175 25.3313 6.72923 25.4067 6.91357C25.4822 7.09791 25.5201 7.29543 25.5184 7.4946C25.5166 7.69377 25.4753 7.8906 25.3967 8.07361C25.318 8.25661 25.2038 8.42213 25.0605 8.5605L24.048 9.573C25.3939 11.2579 26.3165 13.2407 26.7387 15.3554C27.1609 17.4701 27.0704 19.6552 26.4747 21.7277C25.879 23.8002 24.7955 25.6999 23.3149 27.2677C21.8343 28.8355 19.9996 30.0258 17.9645 30.7389C15.9294 31.4521 13.7531 31.6673 11.6177 31.3667C9.48236 31.066 7.45009 30.2582 5.69103 29.0108C3.93197 27.7634 2.49733 26.1128 1.50719 24.1971C0.517051 22.2814 0.000233549 20.1564 5.0526e-08 18ZM15 12C15 11.6022 14.842 11.2206 14.5607 10.9393C14.2794 10.658 13.8978 10.5 13.5 10.5C13.1022 10.5 12.7206 10.658 12.4393 10.9393C12.158 11.2206 12 11.6022 12 12V18C12 18.3978 12.158 18.7794 12.4393 19.0607C12.7206 19.342 13.1022 19.5 13.5 19.5C13.8978 19.5 14.2794 19.342 14.5607 19.0607C14.842 18.7794 15 18.3978 15 18V12Z" fill="white"/>
</svg>
