<svg width="27" height="24" viewBox="0 0 27 24" fill="none" xmlns="http://www.w3.org/2000/svg">
<path d="M24 0H3C2.20435 0 1.44129 0.31607 0.87868 0.87868C0.31607 1.44129 0 2.20435 0 3V21C0 21.7956 0.31607 22.5587 0.87868 23.1213C1.44129 23.6839 2.20435 24 3 24H24C25.65 24 27 22.65 27 21V3C27 1.35 25.65 0 24 0ZM12 10.5H9.75V9.75H6.75V14.25H9.75V13.5H12V15C12 15.825 11.325 16.5 10.5 16.5H6C5.175 16.5 4.5 15.825 4.5 15V9C4.5 8.175 5.175 7.5 6 7.5H10.5C11.325 7.5 12 8.175 12 9V10.5ZM22.5 10.5H20.25V9.75H17.25V14.25H20.25V13.5H22.5V15C22.5 15.825 21.825 16.5 21 16.5H16.5C15.675 16.5 15 15.825 15 15V9C15 8.175 15.675 7.5 16.5 7.5H21C21.825 7.5 22.5 8.175 22.5 9V10.5Z" fill="white"/>
</svg>
