<svg width="29" height="29" viewBox="0 0 29 29" fill="none" xmlns="http://www.w3.org/2000/svg">
<path d="M29 4.57895V7.63158H24.4211V12.2105H21.3684V7.63158H16.7895V4.57895H21.3684V0H24.4211V4.57895H29ZM16.0263 15.2632C16.6337 15.263 17.2162 15.0215 17.6455 14.5918C18.0749 14.1622 18.316 13.5796 18.3158 12.9722C18.3156 12.3647 18.0741 11.7823 17.6445 11.3529C17.2148 10.9236 16.6322 10.6825 16.0248 10.6827C15.724 10.6828 15.4262 10.7421 15.1484 10.8573C14.8706 10.9725 14.6182 11.1413 14.4056 11.354C14.193 11.5668 14.0244 11.8193 13.9094 12.0972C13.7944 12.3751 13.7352 12.6729 13.7353 12.9737C13.7354 13.2744 13.7948 13.5722 13.9099 13.8501C14.0251 14.1279 14.1939 14.3803 14.4067 14.5929C14.6194 14.8055 14.8719 14.9741 15.1498 15.0891C15.4277 15.2041 15.7256 15.2633 16.0263 15.2632ZM21.3684 20.1993L20.5854 19.3293C20.2991 19.0105 19.949 18.7556 19.5577 18.581C19.1664 18.4065 18.7427 18.3163 18.3143 18.3163C17.8858 18.3163 17.4622 18.4065 17.0709 18.581C16.6796 18.7556 16.3294 19.0105 16.0431 19.3293L15.0418 20.445L7.63158 12.2105L3.05263 17.2977V7.63158H13.7368V4.57895H3.05263C2.24302 4.57895 1.46657 4.90056 0.894095 5.47304C0.321615 6.04552 0 6.82197 0 7.63158V25.9474C0 26.757 0.321615 27.5334 0.894095 28.1059C1.46657 28.6784 2.24302 29 3.05263 29H21.3684C22.178 29 22.9545 28.6784 23.527 28.1059C24.0994 27.5334 24.4211 26.757 24.4211 25.9474V15.2632H21.3684V20.1993Z" fill="white"/>
</svg>
