<svg width="19" height="14" viewBox="0 0 19 14" fill="none" xmlns="http://www.w3.org/2000/svg">
<path fill-rule="evenodd" clip-rule="evenodd" d="M13.0915 3.65571C13.0915 5.68502 11.4737 7.3122 9.45615 7.3122C7.43857 7.3122 5.82079 5.68502 5.82079 3.65571C5.82079 1.62562 7.43857 0 9.45615 0C11.4737 0 13.0915 1.62562 13.0915 3.65571ZM9.45615 13.8184C6.4928 13.8184 3.96251 13.3486 3.96251 11.4694C3.96251 9.58947 6.47656 9.10256 9.45615 9.10256C12.4195 9.10256 14.9498 9.57236 14.9498 11.4523C14.9498 13.3315 12.4357 13.8184 9.45615 13.8184ZM14.645 3.72167C14.645 4.75616 14.3365 5.71986 13.7951 6.52101C13.7395 6.60346 13.789 6.71468 13.8872 6.7318C14.0225 6.75513 14.1625 6.76835 14.3048 6.77224C15.7238 6.80958 16.9974 5.89098 17.3493 4.50803C17.8705 2.45384 16.3401 0.609648 14.3914 0.609648C14.1795 0.609648 13.9769 0.632204 13.7797 0.672651C13.7526 0.678873 13.724 0.691318 13.7085 0.71543C13.69 0.744987 13.7039 0.784655 13.7225 0.810323C14.3079 1.63558 14.645 2.64207 14.645 3.72167ZM16.9951 8.21555C17.9486 8.403 18.5758 8.78568 18.8356 9.34182C19.0552 9.79839 19.0552 10.3281 18.8356 10.7839C18.4381 11.6465 17.1568 11.9234 16.6587 11.9949C16.5559 12.0105 16.4731 11.921 16.484 11.8176C16.7384 9.42737 14.7146 8.2941 14.1911 8.03354C14.1687 8.02187 14.164 8.00398 14.1663 7.99309C14.1679 7.98531 14.1772 7.97287 14.1942 7.97054C15.3271 7.94953 16.5451 8.1051 16.9951 8.21555ZM4.69577 6.77216C4.83806 6.76827 4.97726 6.75583 5.11336 6.73172C5.21157 6.71461 5.26106 6.60338 5.20538 6.52093C4.66406 5.71979 4.35551 4.75608 4.35551 3.72159C4.35551 2.64199 4.69268 1.6355 5.27808 0.810245C5.29664 0.784577 5.30978 0.744909 5.292 0.715352C5.27653 0.692018 5.24714 0.678795 5.22085 0.672573C5.02288 0.632127 4.82027 0.60957 4.60838 0.60957C2.65963 0.60957 1.12923 2.45376 1.65122 4.50796C2.00308 5.8909 3.27673 6.8095 4.69577 6.77216ZM4.83381 7.99263C4.83613 8.00429 4.83149 8.0214 4.80983 8.03385C4.28552 8.29442 2.26176 9.42769 2.51618 11.8171C2.527 11.9213 2.44503 12.01 2.34218 11.9952C1.84417 11.9237 0.562781 11.6468 0.165296 10.7842C-0.0550988 10.3276 -0.0550988 9.7987 0.165296 9.34213C0.42513 8.78599 1.05152 8.40331 2.00502 8.21508C2.45586 8.10541 3.67306 7.94985 4.80674 7.97085C4.82375 7.97318 4.83226 7.98563 4.83381 7.99263Z" fill="white"/>
</svg>
