<svg width="23" height="25" viewBox="0 0 23 25" fill="none" xmlns="http://www.w3.org/2000/svg">
<path fill-rule="evenodd" clip-rule="evenodd" d="M9.04715 23.8066C4.5745 23.8066 0.753873 23.1299 0.753873 20.421C0.753873 17.7121 4.54988 15.2483 9.04715 15.2483C13.5198 15.2483 17.3404 17.6886 17.3404 20.3964C17.3404 23.1041 13.5444 23.8066 9.04715 23.8066Z" stroke="#212121" stroke-width="1.5" stroke-linecap="round" stroke-linejoin="round"/>
<path fill-rule="evenodd" clip-rule="evenodd" d="M9.04693 11.3855C11.9822 11.3855 14.3627 9.00493 14.3627 6.06968C14.3627 3.13326 11.9822 0.753873 9.04693 0.753873C6.11168 0.753873 3.73112 3.13326 3.73112 6.06968C3.72056 8.99438 6.08471 11.3749 9.0094 11.3855H9.04693Z" stroke="#212121" stroke-width="1.5" stroke-linecap="round" stroke-linejoin="round"/>
<path d="M19.8464 7.76548V12.468" stroke="#212121" stroke-width="1.5" stroke-linecap="round" stroke-linejoin="round"/>
<path d="M22.2463 10.1168H17.45" stroke="#212121" stroke-width="1.5" stroke-linecap="round" stroke-linejoin="round"/>
</svg>
