<svg width="24" height="22" viewBox="0 0 24 22" fill="none" xmlns="http://www.w3.org/2000/svg">
<path fill-rule="evenodd" clip-rule="evenodd" d="M23.2313 13.4202C20.0501 13.4202 20.0501 8.50153 23.2313 8.50153C23.2313 2.80256 23.2313 0.768512 11.9999 0.768512C0.768512 0.768512 0.768512 2.80256 0.768512 8.50153C3.94964 8.50153 3.94964 13.4202 0.768512 13.4202C0.768512 19.1203 0.768512 21.1543 11.9999 21.1543C23.2313 21.1543 23.2313 19.1203 23.2313 13.4202Z" stroke="#212121" stroke-width="1.5" stroke-linecap="round" stroke-linejoin="round"/>
<path fill-rule="evenodd" clip-rule="evenodd" d="M11.9998 7.6551C11.1833 7.6551 11.1056 8.95753 10.6202 9.41847C10.1337 9.87829 8.62382 9.35279 8.41342 10.1694C8.20422 10.987 9.56346 11.2645 9.73202 11.9656C9.89938 12.6666 9.06973 13.6519 9.77864 14.1434C10.4887 14.6327 11.2526 13.5239 11.9998 13.5239C12.747 13.5239 13.5109 14.6327 14.221 14.1434C14.9311 13.6519 14.1002 12.6666 14.2676 11.9656C14.4362 11.2645 15.7954 10.987 15.5862 10.1694C15.3758 9.35279 13.8659 9.87829 13.3794 9.41847C12.894 8.95753 12.8163 7.6551 11.9998 7.6551Z" stroke="#212121" stroke-width="1.5" stroke-linecap="round" stroke-linejoin="round"/>
</svg>
