<svg width="23" height="17" viewBox="0 0 23 17" fill="none" xmlns="http://www.w3.org/2000/svg">
<path d="M11.7832 12.8873C11.7832 12.3667 11.3612 11.9447 10.8406 11.9447H9.42659C7.49367 11.9439 5.59731 12.4716 3.94252 13.4705C2.56115 14.3044 1.39199 15.4402 0.51994 16.7879C0.369347 17.0207 -0.000142107 16.9352 4.10035e-08 16.658C4.10035e-08 10.4673 4.77354 5.39201 10.8407 4.91187C11.3597 4.8708 11.7832 4.45269 11.7832 3.93207V0.944428C11.7832 0.154003 12.6976 -0.285439 13.3148 0.208336L22.6464 7.67361C23.1181 8.05098 23.1181 8.76842 22.6464 9.14579L13.3148 16.6111C12.6976 17.1048 11.7832 16.6654 11.7832 15.875V12.8873Z" fill="#FF4D00"/>
</svg>
