<svg width="10" height="8" viewBox="0 0 10 8" fill="none" xmlns="http://www.w3.org/2000/svg">
<path fill-rule="evenodd" clip-rule="evenodd" d="M2.05652 0H4.95255C6.16356 0 7.00907 0.834518 7.00907 2.03046V5.46954C7.00907 6.66548 6.16356 7.5 4.95255 7.5H2.05652C0.845508 7.5 0 6.66548 0 5.46954V2.03046C0 0.834518 0.845508 0 2.05652 0ZM8.97899 1.18949C9.19849 1.07782 9.45599 1.08949 9.6655 1.22147C9.875 1.35294 10 1.58137 10 1.83112V5.66919C10 5.91944 9.875 6.14736 9.6655 6.27883C9.551 6.35041 9.42299 6.38695 9.29399 6.38695C9.18649 6.38695 9.07899 6.36157 8.97849 6.3103L8.23798 5.9367C7.96398 5.79761 7.79398 5.51843 7.79398 5.20827V2.29152C7.79398 1.98086 7.96398 1.70167 8.23798 1.5636L8.97899 1.18949Z" fill="#FF4D00"/>
</svg>
