<svg width="17" height="17" viewBox="0 0 17 17" fill="none" xmlns="http://www.w3.org/2000/svg">
<path d="M16.5197 0.494676C16.0946 0.0583072 15.4653 -0.104261 14.8786 0.0668635L1.19677 4.04552C0.577732 4.2175 0.138961 4.71119 0.0207652 5.33837C-0.0999818 5.97666 0.321783 6.78694 0.872797 7.12576L5.15082 9.7551C5.58959 10.0246 6.15591 9.95703 6.519 9.59082L11.4178 4.66157C11.6644 4.40488 12.0725 4.40488 12.3191 4.66157C12.5657 4.9097 12.5657 5.31184 12.3191 5.56853L7.41185 10.4986C7.04791 10.864 6.97988 11.433 7.24773 11.8745L9.86165 16.1954C10.1678 16.7088 10.695 16.9997 11.2732 16.9997C11.3412 16.9997 11.4178 16.9997 11.4858 16.9911C12.149 16.9055 12.6762 16.4521 12.8718 15.8104L16.9279 2.14603C17.1065 1.56421 16.9449 0.931044 16.5197 0.494676Z" fill="white"/>
</svg>
