<svg width="23" height="19" viewBox="0 0 23 19" fill="none" xmlns="http://www.w3.org/2000/svg">
<path d="M20.6367 4.65563C20.6519 4.86044 20.6519 5.06408 20.6519 5.26772C20.6519 11.4998 15.9085 18.681 7.23975 18.681C4.56902 18.681 2.08789 17.9074 0 16.5639C0.379191 16.6072 0.744339 16.6224 1.13874 16.6224C3.26057 16.6275 5.32231 15.918 6.99163 14.6082C6.00787 14.5904 5.05422 14.2659 4.26384 13.6798C3.47346 13.0938 2.88582 12.2756 2.58295 11.3395C2.87436 11.3828 3.16695 11.412 3.47358 11.412C3.89607 11.412 4.32091 11.3535 4.71531 11.2517C3.64768 11.0361 2.68766 10.4574 1.9985 9.61401C1.30934 8.77058 0.933575 7.71449 0.935105 6.62532V6.5668C1.56358 6.91673 2.2927 7.13559 3.06513 7.16485C2.41803 6.73484 1.88744 6.15135 1.52067 5.46643C1.15391 4.78151 0.962389 4.01645 0.963193 3.23951C0.963193 2.3641 1.19609 1.56124 1.60454 0.861374C2.78909 2.31847 4.26649 3.51052 5.94106 4.3603C7.61562 5.21008 9.45001 5.69866 11.3254 5.79437C11.2529 5.44327 11.2084 5.07929 11.2084 4.71415C11.2081 4.09499 11.3298 3.48184 11.5666 2.90976C11.8034 2.33767 12.1506 1.81787 12.5884 1.38006C13.0262 0.942246 13.5461 0.595016 14.1181 0.358217C14.6902 0.121418 15.3034 -0.000307074 15.9225 5.81735e-07C17.2801 5.81735e-07 18.5055 0.568787 19.3669 1.48868C20.4222 1.28459 21.4343 0.899318 22.3582 0.349933C22.0065 1.43931 21.2695 2.36305 20.2856 2.9481C21.2216 2.84134 22.1364 2.59518 22.9996 2.2178C22.3549 3.1577 21.556 3.98191 20.6367 4.65563Z" fill="#212121"/>
</svg>
