<svg width="30" height="30" viewBox="0 0 30 30" fill="none" xmlns="http://www.w3.org/2000/svg">
<path fill-rule="evenodd" clip-rule="evenodd" d="M8.505 0H21.51C26.595 0 30 3.57 30 8.88V21.1365C30 26.4315 26.595 30 21.51 30H8.505C3.42 30 0 26.4315 0 21.1365V8.88C0 3.57 3.42 0 8.505 0ZM19.5153 19.5004C20.0253 18.9919 20.0253 18.1669 19.5153 17.6569L16.8453 14.9869L19.5153 12.3154C20.0253 11.8069 20.0253 10.9669 19.5153 10.4569C19.0053 9.94541 18.1803 9.94541 17.6553 10.4569L15.0003 13.1254L12.3303 10.4569C11.8053 9.94541 10.9803 9.94541 10.4703 10.4569C9.96031 10.9669 9.96031 11.8069 10.4703 12.3154L13.1403 14.9869L10.4703 17.6419C9.96031 18.1669 9.96031 18.9919 10.4703 19.5004C10.7253 19.7554 11.0703 19.8919 11.4003 19.8919C11.7453 19.8919 12.0753 19.7554 12.3303 19.5004L15.0003 16.8469L17.6703 19.5004C17.9253 19.7719 18.2553 19.8919 18.5853 19.8919C18.9303 19.8919 19.2603 19.7554 19.5153 19.5004Z" fill="white"/>
</svg>
