<svg width="17" height="17" viewBox="0 0 17 17" fill="none" xmlns="http://www.w3.org/2000/svg">
<path fill-rule="evenodd" clip-rule="evenodd" d="M4.81616 16.9997H12.1827C15.0643 16.9997 16.9997 14.9783 16.9997 11.9706V5.02911C16.9997 2.02136 15.0643 0 12.1835 0H4.81616C1.93532 0 0 2.02136 0 5.02911V11.9706C0 14.9783 1.93532 16.9997 4.81616 16.9997ZM5.52392 7.64985C4.3521 7.64985 3.39993 6.6964 3.39993 5.52489C3.39993 4.35339 4.3521 3.39993 5.52392 3.39993C6.69489 3.39993 7.64791 4.35339 7.64791 5.52489C7.64791 6.6964 6.69489 7.64985 5.52392 7.64985ZM15.1474 10.9936C15.432 11.7235 15.2842 12.6006 14.9799 13.3234C14.6192 14.1831 13.9286 14.8339 13.0585 15.1181C12.6721 15.2444 12.267 15.2997 11.8627 15.2997H4.69926C3.98642 15.2997 3.35563 15.1287 2.83852 14.8102C2.51458 14.6102 2.45732 14.1488 2.69749 13.8497C3.09921 13.3497 3.49581 12.848 3.89582 12.3419C4.65823 11.3735 5.17192 11.0928 5.74287 11.3393C5.9745 11.441 6.20699 11.5936 6.44631 11.755C7.08393 12.1884 7.97028 12.784 9.13784 12.1375C9.93682 11.69 10.4002 10.9224 10.8038 10.254L10.8105 10.2428C10.8391 10.196 10.8673 10.1492 10.8955 10.1025L10.8957 10.1022L10.8957 10.1022C11.0314 9.87781 11.1652 9.65642 11.3165 9.45245C11.5063 9.19719 12.2097 8.39896 13.1208 8.96737C13.7012 9.32526 14.1893 9.80946 14.7115 10.3279C14.9106 10.5261 15.0525 10.7515 15.1474 10.9936Z" fill="white"/>
</svg>
