<svg width="24" height="24" viewBox="0 0 24 24" fill="none" xmlns="http://www.w3.org/2000/svg">
<path d="M5.98603 15.4001L9.49198 10.8446L13.4911 13.9839L16.9221 9.55607" stroke="#212121" stroke-width="1.5" stroke-linecap="round" stroke-linejoin="round"/>
<path fill-rule="evenodd" clip-rule="evenodd" d="M20.9213 0.753033C22.1653 0.753033 23.1727 1.76042 23.1727 3.00444C23.1727 4.24728 22.1653 5.25584 20.9213 5.25584C19.6773 5.25584 18.6699 4.24728 18.6699 3.00444C18.6699 1.76042 19.6773 0.753033 20.9213 0.753033Z" stroke="#212121" stroke-width="1.5" stroke-linecap="round" stroke-linejoin="round"/>
<path d="M22.1964 8.858C22.3522 9.90639 22.4237 11.0871 22.4237 12.412C22.4237 20.5391 19.7154 23.2473 11.5883 23.2473C3.46245 23.2473 0.753033 20.5391 0.753033 12.412C0.753033 4.28608 3.46245 1.57666 11.5883 1.57666C12.8886 1.57666 14.0494 1.64578 15.0826 1.79571" stroke="#212121" stroke-width="1.5" stroke-linecap="round" stroke-linejoin="round"/>
</svg>
