<svg width="22" height="24" viewBox="0 0 22 24" fill="none" xmlns="http://www.w3.org/2000/svg">
<path fill-rule="evenodd" clip-rule="evenodd" d="M10.8168 9.04246C12.4504 9.04246 13.7745 10.3665 13.7745 12.0002C13.7745 13.6339 12.4504 14.9579 10.8168 14.9579C9.18306 14.9579 7.85905 13.6339 7.85905 12.0002C7.85905 10.3665 9.18306 9.04246 10.8168 9.04246Z" stroke="#212121" stroke-width="1.5" stroke-linecap="round" stroke-linejoin="round"/>
<path fill-rule="evenodd" clip-rule="evenodd" d="M20.4802 6.38049V6.38049C19.6715 4.96995 17.8812 4.48731 16.482 5.30184C15.2649 6.00886 13.7438 5.12421 13.7438 3.709C13.7438 2.0811 12.4327 0.760553 10.8165 0.760553V0.760553C9.20025 0.760553 7.88917 2.0811 7.88917 3.709C7.88917 5.12421 6.36809 6.00886 5.15215 5.30184C3.75173 4.48731 1.96147 4.96995 1.15278 6.38049C0.345245 7.79102 0.824427 9.59421 2.22484 10.4076C3.44078 11.1158 3.44078 12.8839 2.22484 13.5921C0.824427 14.4066 0.345245 16.2098 1.15278 17.6192C1.96147 19.0297 3.75173 19.5124 5.15099 18.699H5.15215C6.36809 17.9908 7.88917 18.8755 7.88917 20.2907V20.2907C7.88917 21.9186 9.20025 23.2391 10.8165 23.2391V23.2391C12.4327 23.2391 13.7438 21.9186 13.7438 20.2907V20.2907C13.7438 18.8755 15.2649 17.9908 16.482 18.699C17.8812 19.5124 19.6715 19.0297 20.4802 17.6192C21.2889 16.2098 20.8085 14.4066 19.4093 13.5921H19.4081C18.1922 12.8839 18.1922 11.1158 19.4093 10.4076C20.8085 9.59421 21.2889 7.79102 20.4802 6.38049Z" stroke="#212121" stroke-width="1.5" stroke-linecap="round" stroke-linejoin="round"/>
</svg>
