<svg width="14" height="14" viewBox="0 0 14 14" fill="none" xmlns="http://www.w3.org/2000/svg">
<path fill-rule="evenodd" clip-rule="evenodd" d="M0 6.99991C0 3.13596 3.12896 0 6.99991 0C10.8639 0 13.9998 3.13596 13.9998 6.99991C13.9998 10.8709 10.8639 13.9998 6.99991 13.9998C3.12896 13.9998 0 10.8709 0 6.99991ZM8.5609 8.2809L9.69488 4.69694C9.77188 4.45195 9.54788 4.22095 9.30289 4.29795L5.71893 5.41793C5.57193 5.46693 5.45293 5.57893 5.41093 5.72593L4.29095 9.31689C4.21395 9.55488 4.44495 9.78588 4.68294 9.70888L8.2529 8.5889C8.3999 8.5469 8.5189 8.4279 8.5609 8.2809Z" fill="#00F2EA"/>
</svg>
