<svg width="30" height="30" viewBox="0 0 30 30" fill="none" xmlns="http://www.w3.org/2000/svg">
<path d="M15 0C11.0218 0 7.20644 1.58035 4.3934 4.3934C1.58035 7.20644 0 11.0218 0 15C0 18.9782 1.58035 22.7936 4.3934 25.6066C7.20644 28.4196 11.0218 30 15 30C16.4963 30.0041 17.9845 29.7804 19.4135 29.3365C19.597 29.2891 19.7625 29.1888 19.8894 29.0481L29.0481 19.8894C29.1857 19.76 29.2855 19.5954 29.3365 19.4135C29.7804 17.9845 30.0041 16.4963 30 15C29.9924 11.0241 28.4096 7.21321 25.5982 4.40182C22.7868 1.59043 18.9759 0.007624 15 0ZM20.1923 10.3846C20.5346 10.3846 20.8692 10.4861 21.1539 10.6763C21.4385 10.8665 21.6603 11.1368 21.7913 11.453C21.9223 11.7693 21.9566 12.1173 21.8898 12.453C21.823 12.7888 21.6582 13.0972 21.4161 13.3392C21.1741 13.5813 20.8657 13.7461 20.53 13.8129C20.1942 13.8797 19.8462 13.8454 19.53 13.7144C19.2137 13.5834 18.9434 13.3616 18.7532 13.0769C18.563 12.7923 18.4615 12.4577 18.4615 12.1154C18.4615 11.6564 18.6439 11.2161 18.9685 10.8915C19.2931 10.567 19.7333 10.3846 20.1923 10.3846ZM9.80769 10.3846C10.15 10.3846 10.4846 10.4861 10.7693 10.6763C11.0539 10.8665 11.2757 11.1368 11.4067 11.453C11.5377 11.7693 11.572 12.1173 11.5052 12.453C11.4384 12.7888 11.2736 13.0972 11.0315 13.3392C10.7895 13.5813 10.4811 13.7461 10.1453 13.8129C9.80961 13.8797 9.46161 13.8454 9.14536 13.7144C8.8291 13.5834 8.55879 13.3616 8.36861 13.0769C8.17843 12.7923 8.07692 12.4577 8.07692 12.1154C8.07692 11.6564 8.25927 11.2161 8.58385 10.8915C8.90844 10.567 9.34866 10.3846 9.80769 10.3846ZM21.9952 19.0385C21.2863 20.2665 20.2667 21.2863 19.0388 21.9953C17.8109 22.7043 16.4179 23.0776 15 23.0776C13.5821 23.0776 12.1891 22.7043 10.9612 21.9953C9.73329 21.2863 8.71366 20.2665 8.00481 19.0385C7.9145 18.9075 7.85227 18.7592 7.82202 18.603C7.79177 18.4468 7.79416 18.286 7.82903 18.1307C7.86391 17.9755 7.93051 17.8291 8.02466 17.7009C8.11882 17.5726 8.23848 17.4652 8.37614 17.3854C8.51379 17.3056 8.66647 17.2551 8.82457 17.2371C8.98267 17.2192 9.14277 17.2341 9.29482 17.281C9.44687 17.3279 9.58758 17.4057 9.70811 17.5096C9.82864 17.6135 9.92638 17.7411 9.99519 17.8846C10.5033 18.762 11.2332 19.4903 12.1116 19.9967C12.99 20.503 13.9861 20.7696 15 20.7696C16.0139 20.7696 17.01 20.503 17.8884 19.9967C18.7668 19.4903 19.4967 18.762 20.0048 17.8846C20.1696 17.6455 20.4186 17.4773 20.7019 17.4137C20.9853 17.35 21.2823 17.3956 21.5335 17.5412C21.7848 17.6869 21.9719 17.9219 22.0574 18.1995C22.143 18.477 22.1208 18.7766 21.9952 19.0385Z" fill="white"/>
</svg>
