<svg width="26" height="19" viewBox="0 0 26 19" fill="none" xmlns="http://www.w3.org/2000/svg">
<path fill-rule="evenodd" clip-rule="evenodd" d="M17.9141 5.0024C17.9141 7.77926 15.7004 10.0059 12.9396 10.0059C10.1788 10.0059 7.96505 7.77926 7.96505 5.0024C7.96505 2.22447 10.1788 0 12.9396 0C15.7004 0 17.9141 2.22447 17.9141 5.0024ZM12.9396 18.9089C8.88461 18.9089 5.42222 18.266 5.42222 15.6945C5.42222 13.122 8.86239 12.4558 12.9396 12.4558C16.9946 12.4558 20.457 13.0986 20.457 15.6711C20.457 18.2426 17.0168 18.9089 12.9396 18.9089ZM20.0399 5.09265C20.0399 6.50823 19.6177 7.82694 18.877 8.92321C18.8008 9.03603 18.8685 9.18823 19.0029 9.21165C19.1881 9.24358 19.3796 9.26167 19.5743 9.267C21.5161 9.31808 23.259 8.0611 23.7404 6.1687C24.4537 3.35778 22.3595 0.83423 19.6929 0.83423C19.4029 0.83423 19.1257 0.865096 18.8558 0.920441C18.8188 0.928956 18.7796 0.945985 18.7585 0.97898C18.7331 1.01942 18.7521 1.07371 18.7775 1.10883C19.5786 2.23809 20.0399 3.61535 20.0399 5.09265ZM23.2558 11.242C24.5605 11.4985 25.4187 12.0221 25.7743 12.7831C26.0748 13.4079 26.0748 14.1327 25.7743 14.7564C25.2304 15.9368 23.4769 16.3157 22.7955 16.4136C22.6547 16.4349 22.5415 16.3125 22.5563 16.1709C22.9045 12.9002 20.1352 11.3495 19.4188 10.9929C19.3881 10.977 19.3818 10.9525 19.3849 10.9376C19.387 10.9269 19.3997 10.9099 19.423 10.9067C20.9733 10.878 22.6399 11.0908 23.2558 11.242ZM6.42559 9.26689C6.6203 9.26157 6.81077 9.24454 6.99701 9.21154C7.13141 9.18813 7.19913 9.03593 7.12294 8.92311C6.38221 7.82684 5.95999 6.50812 5.95999 5.09255C5.95999 3.61524 6.42136 2.23799 7.22241 1.10872C7.24781 1.0736 7.2658 1.01932 7.24146 0.978874C7.22029 0.946944 7.18008 0.92885 7.1441 0.920335C6.87321 0.864989 6.59596 0.834124 6.30602 0.834124C3.63938 0.834124 1.54522 3.35767 2.2595 6.1686C2.74098 8.06099 4.48381 9.31798 6.42559 9.26689ZM6.61448 10.9369C6.61765 10.9529 6.61131 10.9763 6.58168 10.9934C5.86422 11.3499 3.09494 12.9007 3.44309 16.1703C3.4579 16.3129 3.34573 16.4343 3.20499 16.414C2.52352 16.3161 0.770098 15.9372 0.226188 14.7569C-0.075396 14.1321 -0.075396 13.4083 0.226188 12.7836C0.58174 12.0226 1.43887 11.4989 2.74362 11.2413C3.36055 11.0913 5.02614 10.8784 6.57744 10.9071C6.60072 10.9103 6.61236 10.9274 6.61448 10.9369Z" fill="#FF4D00"/>
</svg>
