<svg width="19" height="21" viewBox="0 0 19 21" fill="none" xmlns="http://www.w3.org/2000/svg">
<path fill-rule="evenodd" clip-rule="evenodd" d="M9.47561 7.93902C10.8902 7.93902 12.0366 9.08544 12.0366 10.5C12.0366 11.9146 10.8902 13.061 9.47561 13.061C8.06105 13.061 6.91463 11.9146 6.91463 10.5C6.91463 9.08544 8.06105 7.93902 9.47561 7.93902Z" stroke="white" stroke-width="1.5" stroke-linecap="round" stroke-linejoin="round"/>
<path fill-rule="evenodd" clip-rule="evenodd" d="M17.8428 5.6344V5.6344C17.1426 4.41307 15.5925 3.99516 14.3809 4.70044C13.3271 5.31262 12.01 4.54663 12.01 3.32125C12.01 1.91171 10.8748 0.768293 9.47537 0.768293V0.768293C8.07594 0.768293 6.94072 1.91171 6.94072 3.32125C6.94072 4.54663 5.62366 5.31262 4.57082 4.70044C3.35825 3.99516 1.80812 4.41307 1.10791 5.6344C0.408692 6.85573 0.823599 8.41706 2.03617 9.12132C3.08901 9.73452 3.08901 11.2655 2.03617 11.8787C0.823599 12.584 0.408692 14.1453 1.10791 15.3656C1.80812 16.5869 3.35825 17.0048 4.56982 16.3006H4.57082C5.62366 15.6874 6.94072 16.4534 6.94072 17.6787V17.6787C6.94072 19.0883 8.07594 20.2317 9.47537 20.2317V20.2317C10.8748 20.2317 12.01 19.0883 12.01 17.6787V17.6787C12.01 16.4534 13.3271 15.6874 14.3809 16.3006C15.5925 17.0048 17.1426 16.5869 17.8428 15.3656C18.5431 14.1453 18.1271 12.584 16.9156 11.8787H16.9146C15.8617 11.2655 15.8617 9.73452 16.9156 9.12132C18.1271 8.41706 18.5431 6.85573 17.8428 5.6344Z" stroke="white" stroke-width="1.5" stroke-linecap="round" stroke-linejoin="round"/>
</svg>
