<svg width="32" height="30" viewBox="0 0 32 30" fill="none" xmlns="http://www.w3.org/2000/svg">
<path d="M23.3025 7.30229C23.3025 3.28603 20.0347 0 16.0002 0C11.9657 0 8.6979 3.28603 8.6979 7.30229C8.6979 11.3368 11.9657 14.6046 16.0002 14.6046C20.0347 14.6046 23.3025 11.3368 23.3025 7.30229ZM3.65933 16.0468C2.82805 16.5245 2.09912 17.1614 1.51425 17.9211C0.929369 18.6808 0.500022 19.5484 0.25077 20.4742C0.00151794 21.3999 -0.0627478 22.3658 0.0616497 23.3165C0.186047 24.2671 0.496666 25.1839 0.975736 26.0144C1.94439 27.6941 3.54047 28.9204 5.41306 29.4237C7.28565 29.9269 9.28144 29.6659 10.9616 28.698C11.7924 28.2174 12.5203 27.5778 13.1038 26.8158C13.6874 26.0539 14.1151 25.1844 14.3626 24.2571C14.6101 23.3298 14.6726 22.3629 14.5463 21.4114C14.4201 20.46 14.1077 19.5428 13.6269 18.7121C11.6188 15.2253 7.14617 14.0386 3.65933 16.0468ZM21.0388 28.698C24.5439 30.7061 28.9983 29.5195 31.0246 26.0327C33.0328 22.5276 31.8462 18.0732 28.3411 16.0468C24.8542 14.0386 20.3816 15.2253 18.3734 18.7121C17.8927 19.5428 17.5803 20.46 17.4541 21.4114C17.3278 22.3629 17.3902 23.3298 17.6378 24.2571C17.8853 25.1844 18.313 26.0539 18.8965 26.8158C19.4801 27.5778 20.208 28.2174 21.0388 28.698Z" fill="white"/>
</svg>
