<svg width="14" height="13" viewBox="0 0 14 13" fill="none" xmlns="http://www.w3.org/2000/svg">
<path fill-rule="evenodd" clip-rule="evenodd" d="M5.13164 6.87892C7.01638 6.87892 8.52717 5.34858 8.52717 3.43946C8.52717 1.53035 7.01638 0 5.13164 0C3.24691 0 1.73612 1.53035 1.73612 3.43946C1.73612 5.34858 3.24691 6.87892 5.13164 6.87892ZM5.13164 8.56314C2.36345 8.56314 0 9.00573 0 10.774C0 12.5416 2.34906 13.0002 5.13164 13.0002C7.89916 13.0002 10.2633 12.5576 10.2633 10.7893C10.2633 9.02099 7.91423 8.56314 5.13164 8.56314ZM12.2461 4.84965H13.0693C13.4081 4.84965 13.6844 5.1298 13.6844 5.4734C13.6844 5.81699 13.4081 6.09714 13.0693 6.09714H12.2461V6.90267C12.2461 7.24626 11.9706 7.52641 11.631 7.52641C11.2922 7.52641 11.0159 7.24626 11.0159 6.90267V6.09714H10.1942C9.85463 6.09714 9.57907 5.81699 9.57907 5.4734C9.57907 5.1298 9.85463 4.84965 10.1942 4.84965H11.0159V4.04484C11.0159 3.70125 11.2922 3.4211 11.631 3.4211C11.9706 3.4211 12.2461 3.70125 12.2461 4.04484V4.84965Z" fill="white"/>
</svg>
