<svg width="30" height="22" viewBox="0 0 30 22" fill="none" xmlns="http://www.w3.org/2000/svg">
<path d="M15.3189 16.7543C15.3189 16.0775 14.7702 15.5288 14.0934 15.5288H12.2551C9.74222 15.5278 7.27684 16.2138 5.12552 17.5124C3.32965 18.5965 1.80967 20.0732 0.675953 21.8253C0.480174 22.1279 -0.000184748 22.0167 5.3307e-08 21.6564C5.3307e-08 13.6082 6.20589 7.00993 14.0936 6.38573C14.7683 6.33233 15.3189 5.78876 15.3189 5.11193V1.22781C15.3189 0.200213 16.5076 -0.371088 17.31 0.270849L29.4416 9.97615C30.0549 10.4668 30.0549 11.3995 29.4416 11.8901L17.31 21.5954C16.5076 22.2373 15.3189 21.666 15.3189 20.6384V16.7543Z" fill="white"/>
</svg>
