<svg width="13" height="13" viewBox="0 0 13 13" fill="none" xmlns="http://www.w3.org/2000/svg">
<path fill-rule="evenodd" clip-rule="evenodd" d="M3.4645 0H9.529C11.739 0 13 1.248 13 3.4645V9.5355C13 11.739 11.7455 13 9.5355 13H3.4645C1.248 13 0 11.739 0 9.5355V3.4645C0 1.248 1.248 0 3.4645 0ZM7.033 7.0395H8.879C9.178 7.033 9.4185 6.7925 9.4185 6.4935C9.4185 6.1945 9.178 5.954 8.879 5.954H7.033V4.121C7.033 3.822 6.7925 3.5815 6.4935 3.5815C6.1945 3.5815 5.954 3.822 5.954 4.121V5.954H4.1145C3.9715 5.954 3.835 6.0125 3.731 6.11C3.6335 6.214 3.575 6.34985 3.575 6.4935C3.575 6.7925 3.8155 7.033 4.1145 7.0395H5.954V8.879C5.954 9.178 6.1945 9.4185 6.4935 9.4185C6.7925 9.4185 7.033 9.178 7.033 8.879V7.0395Z" fill="#FF4D00"/>
</svg>
