<svg width="27" height="20" viewBox="0 0 27 20" fill="none" xmlns="http://www.w3.org/2000/svg">
<path fill-rule="evenodd" clip-rule="evenodd" d="M5.48405 0H13.2068C16.4362 0 18.6909 2.22538 18.6909 5.41455V14.5854C18.6909 17.7746 16.4362 20 13.2068 20H5.48405C2.25469 20 0 17.7746 0 14.5854V5.41455C0 2.22538 2.25469 0 5.48405 0ZM23.944 3.17198C24.5293 2.87418 25.216 2.90531 25.7747 3.25726C26.3333 3.60785 26.6667 4.21699 26.6667 4.88298V15.1178C26.6667 15.7852 26.3333 16.393 25.7747 16.7436C25.4693 16.9344 25.128 17.0319 24.784 17.0319C24.4973 17.0319 24.2106 16.9642 23.9426 16.8275L21.968 15.8312C21.2373 15.4603 20.7839 14.7158 20.7839 13.8887V6.11073C20.7839 5.2823 21.2373 4.5378 21.968 4.16961L23.944 3.17198Z" fill="white"/>
</svg>
