<svg width="31" height="30" viewBox="0 0 31 30" fill="none" xmlns="http://www.w3.org/2000/svg">
<path d="M11.2628 5.34538e-06C13.6767 -8.77802e-05 16.0267 0.775801 17.966 2.21317C19.9052 3.65054 21.3311 5.67325 22.0331 7.98281C23.8923 8.54804 25.5735 9.58517 26.9128 10.9932C28.2522 12.4012 29.204 14.132 29.6757 16.0172C30.1473 17.9024 30.1227 19.8776 29.6042 21.7504C29.0857 23.6232 28.091 25.3298 26.7169 26.704C25.3429 28.0781 23.6364 29.073 21.7637 29.5917C19.8909 30.1104 17.9157 30.1353 16.0305 29.6638C14.1453 29.1924 12.4143 28.2407 11.0062 26.9015C9.59803 25.5623 8.56072 23.8813 7.99529 22.0221C5.41093 21.2407 3.19372 19.556 1.74829 17.2756C0.302869 14.9952 -0.274388 12.2711 0.121874 9.60042C0.518136 6.92974 1.86149 4.4906 3.90678 2.72813C5.95207 0.965653 8.56291 -0.0026251 11.2628 5.34538e-06ZM22.5117 11.4004L22.5147 11.2518C22.5149 14.2102 21.3501 17.0496 19.2723 19.1555C17.1945 21.2614 14.3709 22.4642 11.4128 22.5037C12.0048 23.6628 12.8626 24.6655 13.9161 25.4298C14.9696 26.1941 16.189 26.6984 17.4746 26.9014C18.7603 27.1043 20.0757 27.0003 21.3134 26.5978C22.5512 26.1952 23.6761 25.5056 24.5964 24.5852C25.5167 23.6647 26.2062 22.5397 26.6086 21.3019C27.011 20.0641 27.1148 18.7487 26.9117 17.463C26.7085 16.1774 26.2041 14.9581 25.4396 13.9047C24.6752 12.8513 23.6724 11.9937 22.5132 11.4019L22.5117 11.4004ZM11.2628 3.00049C9.40903 2.99983 7.60902 3.62344 6.15295 4.77079C4.69688 5.91814 3.66959 7.52238 3.23668 9.32491C2.80377 11.1274 2.99045 13.0233 3.76665 14.7067C4.54284 16.3902 5.86331 17.7632 7.51521 18.6045L7.51221 18.7531C7.51195 15.7947 8.67679 12.9553 10.7546 10.8494C12.8324 8.74352 15.6559 7.54067 18.614 7.50123C17.923 6.146 16.8706 5.00832 15.5732 4.214C14.2758 3.41969 12.784 2.9997 11.2628 3.00049Z" fill="white"/>
</svg>
