<svg width="35" height="23" viewBox="0 0 35 23" fill="none" xmlns="http://www.w3.org/2000/svg">
<path d="M12.2672 0.966095C12.1277 0.676658 11.9094 0.432456 11.6373 0.261557C11.3652 0.0906591 11.0504 0 10.7291 0C10.4078 0 10.093 0.0906591 9.82095 0.261557C9.54887 0.432456 9.33053 0.676658 9.19103 0.966095L0.160035 20.157C-0.0308298 20.5649 -0.051829 21.0319 0.101657 21.4553C0.255143 21.8787 0.570542 22.2238 0.978469 22.4147C1.3864 22.6056 1.85344 22.6266 2.27685 22.4731C2.70026 22.3196 3.04535 22.0042 3.23622 21.5963L5.42341 16.9256H16.0348L18.222 21.5963C18.3591 21.8882 18.5766 22.1349 18.8491 22.3074C19.1216 22.4798 19.4376 22.5709 19.7601 22.5699C20.008 22.5673 20.2528 22.5145 20.4798 22.4147C20.886 22.2219 21.1998 21.8767 21.353 21.454C21.5062 21.0313 21.4865 20.5652 21.2982 20.157L12.2672 0.966095ZM7.01795 13.5389L10.7291 5.66503L14.4403 13.5389H7.01795ZM28.7911 6.61047C27.4359 6.60387 26.1112 7.01261 24.9953 7.78167C24.6266 8.0399 24.3757 8.43399 24.2976 8.87725C24.2196 9.32051 24.3208 9.77662 24.579 10.1453C24.8372 10.5139 25.2313 10.7648 25.6746 10.8429C26.1178 10.921 26.5739 10.8198 26.9426 10.5615C27.4855 10.1867 28.1314 9.98949 28.7911 9.99709C30.3433 9.99709 31.6133 11.0131 31.6133 12.2548V12.4524C30.726 12.053 29.7641 11.8462 28.7911 11.8456C25.3622 11.8456 22.5823 14.315 22.5823 17.3489C22.5823 20.3827 25.3622 22.8521 28.7911 22.8521C29.9348 22.8531 31.0605 22.5669 32.0648 22.0196C32.2221 22.1928 32.4138 22.3311 32.6276 22.4259C32.8414 22.5207 33.0727 22.5697 33.3066 22.5699C33.7557 22.5699 34.1864 22.3915 34.504 22.074C34.8215 21.7564 34.9999 21.3257 34.9999 20.8766V12.2548C34.9999 9.13632 32.2201 6.61047 28.7911 6.61047ZM28.7911 19.4655C27.2671 19.4655 25.9689 18.4919 25.9689 17.3489C25.9689 16.2059 27.2671 15.2322 28.7911 15.2322C30.3151 15.2322 31.6133 16.2059 31.6133 17.3489C31.6133 18.4919 30.3151 19.4655 28.7911 19.4655Z" fill="white"/>
</svg>
