<svg width="33" height="27" viewBox="0 0 33 27" fill="none" xmlns="http://www.w3.org/2000/svg">
<path fill-rule="evenodd" clip-rule="evenodd" d="M18.5356 5.17584C18.4601 4.44633 18.3815 3.68944 18.188 2.93416C17.6611 1.12729 16.2015 1.43927e-05 14.6364 1.43927e-05C13.7635 -0.00320641 12.6593 0.534667 12.0333 1.07898L6.84431 5.42545H4.12792C2.12877 5.42545 0.521266 6.96661 0.217697 9.19057C-0.0402579 11.326 -0.103174 15.3568 0.217697 17.7064C0.4961 20.0559 2.03125 21.5745 4.12792 21.5745H6.84431L12.134 25.9854C12.6766 26.4573 13.6345 26.9984 14.5153 26.9984C14.5719 27 14.6223 27 14.6726 27C16.2675 27 17.6721 25.8308 18.199 24.0288C18.3976 23.267 18.4672 22.5529 18.5344 21.8628V21.8628L18.5356 21.8499L18.6064 21.1623C18.877 18.9319 18.877 8.05363 18.6064 5.83933L18.5356 5.17584ZM24.6092 5.24219C24.1766 4.60447 23.3194 4.44504 22.6918 4.8879C22.0705 5.33398 21.9164 6.21326 22.3489 6.84937C23.5522 8.62242 24.2144 10.9833 24.2144 13.5003C24.2144 16.0158 23.5522 18.3782 22.3489 20.1513C21.9164 20.7874 22.0705 21.6667 22.6934 22.1127C22.9262 22.277 23.1983 22.364 23.4783 22.364C23.9297 22.364 24.3512 22.1369 24.6092 21.7585C26.1286 19.52 26.967 16.5875 26.967 13.5003C26.967 10.4132 26.1286 7.48065 24.6092 5.24219ZM27.4354 0.330934C28.0614 -0.113536 28.9218 0.049114 29.3512 0.685222C31.7042 4.14919 33.0003 8.70179 33.0003 13.4992C33.0003 18.2998 31.7042 22.8508 29.3512 26.3147C29.0948 26.6932 28.6717 26.9203 28.2203 26.9203C27.9403 26.9203 27.6697 26.8333 27.437 26.669C26.8141 26.2229 26.6599 25.3453 27.0909 24.7076C29.1262 21.709 30.2477 17.7281 30.2477 13.4992C30.2477 9.27188 29.1262 5.29097 27.0909 2.2924C26.6599 1.65629 26.8141 0.777015 27.4354 0.330934Z" fill="white"/>
</svg>
