<svg width="20" height="24" viewBox="0 0 20 24" fill="none" xmlns="http://www.w3.org/2000/svg">
<path d="M14.5228 0.0120105C14.4718 -0.0449892 12.6343 0.0345104 11.0353 1.77C9.43634 3.50399 9.68234 5.49298 9.71834 5.54398C9.75434 5.59498 11.9983 5.67448 13.4308 3.65699C14.8633 1.6395 14.5738 0.0705102 14.5228 0.0120105ZM19.4938 17.6114C19.4218 17.4674 16.0063 15.7604 16.3243 12.4784C16.6423 9.19496 18.8368 8.29497 18.8713 8.19747C18.9058 8.09997 17.9758 7.01248 16.9903 6.46198C16.2667 6.07386 15.4659 5.85149 14.6458 5.81098C14.4838 5.80648 13.9213 5.66848 12.7648 5.98498C12.0028 6.19348 10.2853 6.86848 9.81284 6.89548C9.33884 6.92248 7.92885 6.11248 6.41236 5.89798C5.44186 5.71048 4.41287 6.09448 3.67637 6.38998C2.94137 6.68398 1.54338 7.52097 0.565386 9.74546C-0.412609 11.9684 0.0988882 15.4904 0.464886 16.5854C0.830885 17.6789 1.40238 19.4714 2.37438 20.7794C3.23837 22.2554 4.38437 23.2799 4.86286 23.6279C5.34136 23.9759 6.69136 24.2069 7.62735 23.7284C8.38035 23.2664 9.73934 23.0009 10.2763 23.0204C10.8118 23.0399 11.8678 23.2514 12.9493 23.8289C13.8058 24.1244 14.6158 24.0014 15.4273 23.6714C16.2388 23.3399 17.4133 22.0829 18.7843 19.5344C19.3048 18.3494 19.5418 17.7089 19.4938 17.6114Z" fill="black"/>
<path d="M14.5228 0.0120105C14.4718 -0.0449892 12.6343 0.0345104 11.0353 1.77C9.43634 3.50399 9.68234 5.49298 9.71834 5.54398C9.75434 5.59498 11.9983 5.67448 13.4308 3.65699C14.8633 1.6395 14.5738 0.0705102 14.5228 0.0120105ZM19.4938 17.6114C19.4218 17.4674 16.0063 15.7604 16.3243 12.4784C16.6423 9.19496 18.8368 8.29497 18.8713 8.19747C18.9058 8.09997 17.9758 7.01248 16.9903 6.46198C16.2667 6.07386 15.4659 5.85149 14.6458 5.81098C14.4838 5.80648 13.9213 5.66848 12.7648 5.98498C12.0028 6.19348 10.2853 6.86848 9.81284 6.89548C9.33884 6.92248 7.92885 6.11248 6.41236 5.89798C5.44186 5.71048 4.41287 6.09448 3.67637 6.38998C2.94137 6.68398 1.54338 7.52097 0.565386 9.74546C-0.412609 11.9684 0.0988882 15.4904 0.464886 16.5854C0.830885 17.6789 1.40238 19.4714 2.37438 20.7794C3.23837 22.2554 4.38437 23.2799 4.86286 23.6279C5.34136 23.9759 6.69136 24.2069 7.62735 23.7284C8.38035 23.2664 9.73934 23.0009 10.2763 23.0204C10.8118 23.0399 11.8678 23.2514 12.9493 23.8289C13.8058 24.1244 14.6158 24.0014 15.4273 23.6714C16.2388 23.3399 17.4133 22.0829 18.7843 19.5344C19.3048 18.3494 19.5418 17.7089 19.4938 17.6114Z" fill="black"/>
</svg>
