<svg width="17" height="13" viewBox="0 0 17 13" fill="none" xmlns="http://www.w3.org/2000/svg">
<path fill-rule="evenodd" clip-rule="evenodd" d="M3.49602 0H8.41917C10.4778 0 11.9152 1.41865 11.9152 3.45171V9.29804C11.9152 11.3311 10.4778 12.7498 8.41917 12.7498H3.49602C1.43734 12.7498 0 11.3311 0 9.29804V3.45171C0 1.41865 1.43734 0 3.49602 0ZM15.264 2.0221C15.6371 1.83225 16.0749 1.8521 16.431 2.07646C16.7872 2.29996 16.9997 2.68828 16.9997 3.11284V9.63743C16.9997 10.0629 16.7872 10.4503 16.431 10.6738C16.2364 10.7955 16.0188 10.8576 15.7995 10.8576C15.6167 10.8576 15.434 10.8145 15.2631 10.7273L14.0043 10.0922C13.5385 9.85575 13.2495 9.38114 13.2495 8.85389V3.89551C13.2495 3.3674 13.5385 2.89279 14.0043 2.65807L15.264 2.0221Z" fill="#9E9E9E"/>
</svg>
