<svg width="17" height="15" viewBox="0 0 17 15" fill="none" xmlns="http://www.w3.org/2000/svg">
<path fill-rule="evenodd" clip-rule="evenodd" d="M5.80304 2.85064C5.80304 4.42562 4.50462 5.70219 2.90152 5.70219C1.29936 5.70219 0 4.42562 0 2.85064C0 1.27657 1.29936 0 2.90152 0C4.50462 0 5.80304 1.27657 5.80304 2.85064ZM15.6036 1.6017C16.3049 1.6017 16.8749 2.16169 16.8749 2.85064C16.8749 3.5405 16.3049 4.1005 15.6036 4.1005H10.0556C9.3534 4.1005 8.78341 3.5405 8.78341 2.85064C8.78341 2.16169 9.3534 1.6017 10.0556 1.6017H15.6036ZM1.27217 10.9332H6.82022C7.52239 10.9332 8.09239 11.4932 8.09239 12.183C8.09239 12.872 7.52239 13.4329 6.82022 13.4329H1.27217C0.569992 13.4329 0 12.872 0 12.183C0 11.4932 0.569992 10.9332 1.27217 10.9332ZM13.9733 14.9999C15.5764 14.9999 16.8749 13.7233 16.8749 12.1492C16.8749 10.5742 15.5764 9.29768 13.9733 9.29768C12.3712 9.29768 11.0718 10.5742 11.0718 12.1492C11.0718 13.7233 12.3712 14.9999 13.9733 14.9999Z" fill="#FF4D00"/>
</svg>
